<?xml version="1.0" encoding="UTF-8" standalone="no"?>
<!-- Created with Inkscape (http://www.inkscape.org/) -->

<svg
   width="43.08876mm"
   height="12.461288mm"
   viewBox="0 0 43.08876 12.461288"
   version="1.1"
   id="svg1"
   inkscape:version="1.3 (1:1.3+202307231459+0e150ed6c4)"
   sodipodi:docname="logo_white_163x47.svg"
   xmlns:inkscape="http://www.inkscape.org/namespaces/inkscape"
   xmlns:sodipodi="http://sodipodi.sourceforge.net/DTD/sodipodi-0.dtd"
   xmlns="http://www.w3.org/2000/svg"
   xmlns:svg="http://www.w3.org/2000/svg">
  <sodipodi:namedview
     id="namedview1"
     pagecolor="#ffffff"
     bordercolor="#666666"
     borderopacity="1.0"
     inkscape:showpageshadow="2"
     inkscape:pageopacity="0.0"
     inkscape:pagecheckerboard="0"
     inkscape:deskcolor="#d1d1d1"
     inkscape:document-units="mm"
     inkscape:zoom="16.057213"
     inkscape:cx="81.427579"
     inkscape:cy="23.571961"
     inkscape:window-width="3834"
     inkscape:window-height="2127"
     inkscape:window-x="0"
     inkscape:window-y="0"
     inkscape:window-maximized="1"
     inkscape:current-layer="g2" />
  <defs
     id="defs1">
    <clipPath
       clipPathUnits="userSpaceOnUse"
       id="clipPath2324-5-2-6">
      <rect
         style="opacity:1;fill:#ff0000;fill-opacity:1;stroke:none;stroke-width:1;stroke-linecap:round;stroke-miterlimit:4;stroke-dasharray:none;stroke-dashoffset:0;stroke-opacity:1"
         id="rect2326-6-7-0"
         width="14.99026"
         height="27.78896"
         x="44.472549"
         y="112.52393"
         ry="0" />
    </clipPath>
    <clipPath
       clipPathUnits="userSpaceOnUse"
       id="clipPath2324-5-2-7-7">
      <rect
         style="opacity:1;fill:#ff0000;fill-opacity:1;stroke:none;stroke-width:1;stroke-linecap:round;stroke-miterlimit:4;stroke-dasharray:none;stroke-dashoffset:0;stroke-opacity:1"
         id="rect2326-6-7-5-5"
         width="14.99026"
         height="27.78896"
         x="44.472549"
         y="112.52393"
         ry="0" />
    </clipPath>
  </defs>
  <g
     inkscape:label="Layer 1"
     inkscape:groupmode="layer"
     id="layer1"
     transform="translate(-52.122918,-76.843112)">
    <g
       id="g2458-9-2"
       transform="matrix(0.65790104,0,0,0.62124448,3.6928608,75.011068)"
       style="fill:#9bdeac;fill-opacity:1;stroke-width:1.56419">
      <g
         transform="matrix(1.5358112,0,0,1.5358112,-52.456613,-8.1625743)"
         id="g972-1-6"
         style="fill:#c2c2c2;fill-opacity:1;stroke-width:1.01848" />
      <g
         id="g2"
         style="fill:#9bdeac;fill-opacity:1;stroke-width:7.66107"
         transform="matrix(0.31028818,0,0,0.32870915,58.659467,-13.08993)">
        <g
           id="g869-2-1"
           transform="matrix(5.6126382,0,0,5.2999162,-368.57656,2.6993057)"
           style="fill:#ffffff;fill-opacity:1;stroke-width:0.898014">
          <path
             style="font-size:11.2889px;line-height:80%;font-family:Bartino;-inkscape-font-specification:Bartino;letter-spacing:0px;word-spacing:0px;fill:#ffffff;stroke-width:0.237598px;fill-opacity:1"
             d="m 85.179787,18.197565 h 1.12889 v -3.38667 h 1.151468 c 1.23049,-0.01129 2.235202,-1.02729 2.235202,-2.25778 0,-1.23049 -1.004712,-2.246491 -2.235202,-2.25778 h -2.280358 z m 2.25778,-4.51556 h -1.12889 v -2.25778 h 1.12889 c 0.677334,0 1.12889,0.451556 1.12889,1.12889 0,0.677334 -0.451556,1.12889 -1.12889,1.12889 z m 2.822212,4.51556 h 1.12889 v -7.90223 h -1.12889 z m 1.693331,0 H 93.082 v -3.38667 h 1.12889 c 0.677334,0 1.12889,0.451556 1.12889,1.12889 v 2.25778 h 1.12889 v -2.25778 c 0,-0.677334 -0.293512,-1.275646 -0.767645,-1.693335 0.474133,-0.417689 0.767645,-1.016001 0.767645,-1.693335 v -2.25778 h -1.12889 v 2.25778 c 0,0.677334 -0.451556,1.12889 -1.12889,1.12889 H 93.082 v -3.38667 h -1.12889 z m 5.079992,0 h 4.515558 v -1.12889 h -3.386668 v -2.25778 h 3.386668 v -1.12889 h -3.386668 v -2.25778 h 3.386668 v -1.12889 h -4.515558 z m 5.079988,0 h 2.28036 c 1.23049,-0.01129 2.2352,-1.02729 2.2352,-2.25778 0,-0.677334 -0.29351,-1.286935 -0.76764,-1.693335 0.47413,-0.417689 0.76764,-1.02729 0.76764,-1.693335 0,-1.23049 -1.00471,-2.246491 -2.2352,-2.25778 h -2.28036 z m 2.25778,-1.12889 h -1.12889 v -2.25778 h 1.12889 c 0.67734,0 1.12889,0.451556 1.12889,1.12889 0,0.677334 -0.45155,1.12889 -1.12889,1.12889 z m 0,-3.38667 h -1.12889 v -2.25778 h 1.12889 c 0.67734,0 1.12889,0.451556 1.12889,1.12889 0,0.677334 -0.45155,1.12889 -1.12889,1.12889 z m 5.08,4.51556 c 1.24178,0 2.25778,-1.016001 2.25778,-2.25778 v -5.64445 h -1.12889 v 5.64445 c 0,0.677334 -0.45156,1.12889 -1.12889,1.12889 -0.67734,0 -1.12889,-0.451556 -1.12889,-1.12889 v -5.64445 h -1.12889 v 5.64445 c 0,1.241779 1.016,2.25778 2.25778,2.25778 z"
             id="text824-8"
             aria-label="PIKEBU" />
        </g>
        <g
           style="fill:#9bdeac;fill-opacity:1;stroke:#ffffff;stroke-width:2.35842159"
           transform="matrix(2.1065101,0,0,2.0473563,113.9217,-715.10073)"
           id="g2418">
          <g
             style="stroke:#ffffff;stroke-width:0.5896054"
             id="g2382">
            <g
               clip-path="url(#clipPath2324-5-2-7-7)"
               id="g947-7-0"
               transform="translate(-78.397878,262.4517)"
               style="stroke:#ffffff;stroke-width:0.5896054">
              <path
                 inkscape:connector-curvature="0"
                 id="path927-3-7"
                 d="m 48.740258,127.28571 c 0,-16.12109 21.389612,-16.17264 21.389612,0 z"
                 style="fill:none;fill-rule:evenodd;stroke:#ffffff;stroke-width:0.5896054;stroke-linecap:butt;stroke-linejoin:miter;stroke-opacity:1"
                 sodipodi:nodetypes="ccc" />
              <circle
                 r="1.0513123"
                 cy="119.94049"
                 cx="55.880039"
                 id="path931-4-8"
                 style="opacity:1;fill:none;fill-opacity:1;stroke:#ffffff;stroke-width:0.5896054;stroke-linecap:round;stroke-linejoin:round;stroke-miterlimit:4;stroke-dasharray:none;stroke-dashoffset:0;stroke-opacity:1" />
              <circle
                 style="opacity:1;fill:none;fill-opacity:1;stroke:#ffffff;stroke-width:0.5896054;stroke-linecap:round;stroke-linejoin:round;stroke-miterlimit:4;stroke-dasharray:none;stroke-dashoffset:0;stroke-opacity:1"
                 id="circle933-1-0"
                 cx="53.370491"
                 cy="122.01173"
                 r="1.0513123" />
              <circle
                 r="0.6216777"
                 cy="122.63159"
                 cx="55.638321"
                 id="circle935-9-0"
                 style="opacity:1;fill:none;fill-opacity:1;stroke:#ffffff;stroke-width:0.5896054;stroke-linecap:round;stroke-linejoin:round;stroke-miterlimit:4;stroke-dasharray:none;stroke-dashoffset:0;stroke-opacity:1" />
              <path
                 inkscape:connector-curvature="0"
                 id="path937-3-7"
                 d="M 47.4216,128.80155 H 70.292841"
                 style="fill:none;fill-rule:evenodd;stroke:#ffffff;stroke-width:0.5896054;stroke-linecap:butt;stroke-linejoin:miter;stroke-miterlimit:4;stroke-dasharray:none;stroke-opacity:1"
                 sodipodi:nodetypes="cc" />
              <path
                 sodipodi:nodetypes="ccssssc"
                 inkscape:connector-curvature="0"
                 id="path939-9-3"
                 d="M 48.628515,130.40378 H 70.29284 v 2.33164 c 0,1.92159 -0.03099,2.10755 -1.487678,2.10755 H 49.992219 c -1.363705,0 -1.363704,0.031 -1.363704,-1.92159 z"
                 style="fill:none;fill-rule:evenodd;stroke:#ffffff;stroke-width:0.5896054;stroke-linecap:butt;stroke-linejoin:miter;stroke-opacity:1" />
              <circle
                 style="opacity:1;fill:none;fill-opacity:1;stroke:#ffffff;stroke-width:0.5896054;stroke-linecap:round;stroke-linejoin:round;stroke-miterlimit:4;stroke-dasharray:none;stroke-dashoffset:0;stroke-opacity:1"
                 id="circle2460"
                 cx="57.993813"
                 cy="119.47028"
                 r="0.6216777" />
            </g>
            <g
               id="g947-7-5"
               transform="translate(-52.58132,270.91111)"
               style="stroke:#ffffff;stroke-width:0.5896054" />
          </g>
          <path
             style="fill:none;fill-rule:evenodd;stroke:#ffffff;stroke-width:0.5896054;stroke-linecap:round;stroke-linejoin:miter;stroke-opacity:1"
             d="m -7.766499,384.57007 c -0.6024986,-1.541 -1.4632109,-2.82518 -2.496065,-3.85251 -2.065705,-2.05468 -4.81999,-3.08201 -7.574269,-3.08201 v 19.27017 z"
             id="path2328-0"
             inkscape:connector-curvature="0"
             sodipodi:nodetypes="csccc" />
          <circle
             r="1.0513123"
             cy="382.04568"
             cx="-14.380899"
             id="path931-4-8-7"
             style="opacity:1;fill:#ffffff;fill-opacity:1;stroke:none;stroke-width:2.35842159;stroke-linecap:round;stroke-linejoin:round;stroke-miterlimit:4;stroke-dasharray:none;stroke-dashoffset:0;stroke-opacity:1" />
          <circle
             style="opacity:1;fill:#ffffff;fill-opacity:1;stroke:none;stroke-width:2.35842159;stroke-linecap:round;stroke-linejoin:round;stroke-miterlimit:4;stroke-dasharray:none;stroke-dashoffset:0;stroke-opacity:1"
             id="circle2435"
             cx="-12.33534"
             cy="385.08304"
             r="1.0513123" />
          <circle
             r="1.0513123"
             cy="388.49231"
             cx="-15.186725"
             id="circle2437"
             style="opacity:1;fill:#ffffff;fill-opacity:1;stroke:none;stroke-width:2.35842159;stroke-linecap:round;stroke-linejoin:round;stroke-miterlimit:4;stroke-dasharray:none;stroke-dashoffset:0;stroke-opacity:1" />
        </g>
      </g>
    </g>
  </g>
</svg>
