<?xml version="1.0" encoding="UTF-8" standalone="no"?>
<!-- Created with Inkscape (http://www.inkscape.org/) -->

<svg
   width="8.5522633mm"
   height="10.58366mm"
   viewBox="0 0 8.5522632 10.58366"
   version="1.1"
   id="svg1"
   inkscape:version="1.3 (1:1.3+202307231459+0e150ed6c4)"
   sodipodi:docname="pin_kebab.svg"
   xml:space="preserve"
   xmlns:inkscape="http://www.inkscape.org/namespaces/inkscape"
   xmlns:sodipodi="http://sodipodi.sourceforge.net/DTD/sodipodi-0.dtd"
   xmlns="http://www.w3.org/2000/svg"
   xmlns:svg="http://www.w3.org/2000/svg"><sodipodi:namedview
     id="namedview1"
     pagecolor="#ffffff"
     bordercolor="#666666"
     borderopacity="1.0"
     inkscape:showpageshadow="2"
     inkscape:pageopacity="0.0"
     inkscape:pagecheckerboard="0"
     inkscape:deskcolor="#d1d1d1"
     inkscape:document-units="mm"
     inkscape:zoom="34.099172"
     inkscape:cx="26.349614"
     inkscape:cy="21.158872"
     inkscape:window-width="3834"
     inkscape:window-height="2127"
     inkscape:window-x="0"
     inkscape:window-y="0"
     inkscape:window-maximized="1"
     inkscape:current-layer="layer1" /><defs
     id="defs1"><inkscape:path-effect
       effect="powerstroke"
       id="path-effect27"
       is_visible="true"
       lpeversion="1.3"
       scale_width="1"
       interpolator_type="CentripetalCatmullRom"
       interpolator_beta="0.75"
       start_linecap_type="round"
       end_linecap_type="round"
       offset_points="6.4603993,0.11638846"
       linejoin_type="spiro"
       miter_limit="4"
       not_jump="true"
       sort_points="true"
       message="&lt;b&gt;Ctrl + click&lt;/b&gt; on existing node and move it" /><inkscape:path-effect
       effect="simplify"
       id="path-effect26"
       is_visible="true"
       lpeversion="1.3"
       threshold="0.6"
       steps="1"
       smooth_angles="0"
       helper_size="0"
       simplify_individual_paths="false"
       simplify_just_coalesce="false"
       step="1" /><inkscape:path-effect
       effect="powerstroke"
       id="path-effect25"
       is_visible="true"
       lpeversion="1.3"
       scale_width="1"
       interpolator_type="CentripetalCatmullRom"
       interpolator_beta="0.75"
       start_linecap_type="round"
       end_linecap_type="round"
       offset_points="6.9638683,0.11638846"
       linejoin_type="spiro"
       miter_limit="4"
       not_jump="true"
       sort_points="true"
       message="&lt;b&gt;Ctrl + click&lt;/b&gt; on existing node and move it" /><inkscape:path-effect
       effect="simplify"
       id="path-effect24"
       is_visible="true"
       lpeversion="1.3"
       threshold="0.6"
       steps="1"
       smooth_angles="0"
       helper_size="0"
       simplify_individual_paths="false"
       simplify_just_coalesce="false"
       step="1" /><inkscape:path-effect
       effect="powerstroke"
       id="path-effect23"
       is_visible="true"
       lpeversion="1.3"
       scale_width="1"
       interpolator_type="CentripetalCatmullRom"
       interpolator_beta="0.75"
       start_linecap_type="round"
       end_linecap_type="round"
       offset_points="20.062666,0.11638846"
       linejoin_type="spiro"
       miter_limit="4"
       not_jump="true"
       sort_points="true"
       message="&lt;b&gt;Ctrl + click&lt;/b&gt; on existing node and move it" /><inkscape:path-effect
       effect="simplify"
       id="path-effect22"
       is_visible="true"
       lpeversion="1.3"
       threshold="0.014201184"
       steps="1"
       smooth_angles="0"
       helper_size="0"
       simplify_individual_paths="false"
       simplify_just_coalesce="false"
       step="1" /><inkscape:path-effect
       effect="powerstroke"
       id="path-effect21"
       is_visible="true"
       lpeversion="1.3"
       scale_width="1"
       interpolator_type="CentripetalCatmullRom"
       interpolator_beta="0.75"
       start_linecap_type="round"
       end_linecap_type="round"
       offset_points="33.018655,0.11638846"
       linejoin_type="spiro"
       miter_limit="4"
       not_jump="true"
       sort_points="true"
       message="&lt;b&gt;Ctrl + click&lt;/b&gt; on existing node and move it" /><inkscape:path-effect
       effect="simplify"
       id="path-effect20"
       is_visible="true"
       lpeversion="1.3"
       threshold="0.012"
       steps="1"
       smooth_angles="0"
       helper_size="0"
       simplify_individual_paths="false"
       simplify_just_coalesce="false"
       step="1" /><inkscape:path-effect
       effect="powerstroke"
       id="path-effect19"
       is_visible="true"
       lpeversion="1.3"
       scale_width="1"
       interpolator_type="CentripetalCatmullRom"
       interpolator_beta="0.75"
       start_linecap_type="round"
       end_linecap_type="round"
       offset_points="4.6133177,0.11638846"
       linejoin_type="spiro"
       miter_limit="4"
       not_jump="true"
       sort_points="true"
       message="&lt;b&gt;Ctrl + click&lt;/b&gt; on existing node and move it" /><inkscape:path-effect
       effect="simplify"
       id="path-effect18"
       is_visible="true"
       lpeversion="1.3"
       threshold="0.012"
       steps="1"
       smooth_angles="0"
       helper_size="0"
       simplify_individual_paths="false"
       simplify_just_coalesce="false"
       step="1" /><clipPath
       clipPathUnits="userSpaceOnUse"
       id="clipPath2324-5-2-6"><rect
         style="opacity:1;fill:#ff0000;fill-opacity:1;stroke:none;stroke-width:1;stroke-linecap:round;stroke-miterlimit:4;stroke-dasharray:none;stroke-dashoffset:0;stroke-opacity:1"
         id="rect2326-6-7-0"
         width="14.99026"
         height="27.78896"
         x="44.472549"
         y="112.52393"
         ry="0" /></clipPath></defs><g
     inkscape:label="Layer 1"
     inkscape:groupmode="layer"
     id="layer1"
     transform="translate(-65.312291,-108.81233)"><path
       id="path1"
       style="fill:#803300;stroke-width:0.25;stroke-dasharray:1.614, 1.614;paint-order:stroke fill markers;fill-opacity:1"
       d="m 69.588422,108.81246 c -2.361641,0 -4.276131,1.91449 -4.276131,4.27613 0.0022,0.99231 0.349564,1.95296 0.982397,2.71729 l 0.0035,0.005 3.29024,3.58511 3.288888,-3.58424 0.0049,-0.006 c 0.632812,-0.76434 0.980095,-1.72498 0.982338,-2.71729 0,-2.36164 -1.914488,-4.27613 -4.27613,-4.27613 z"
       sodipodi:nodetypes="scccccccss" /><circle
       style="fill:#ffffff;stroke-width:0.25;stroke-dasharray:1.614, 1.614;paint-order:stroke fill markers"
       id="path3"
       cx="69.556648"
       cy="113.05811"
       r="3.5495808" /><path
       id="path34"
       style="fill:#000000;stroke-width:1"
       d="m 68.831837,110.11984 c -0.452506,0 -0.625902,0.008 -0.726383,0.0344 -0.422848,0.11019 -0.730861,0.44714 -0.803448,0.87908 -0.02733,0.16264 -0.02381,0.18747 0.323827,2.28164 0.193305,1.16447 0.367835,2.16851 0.38784,2.23114 0.04793,0.15009 0.210777,0.31435 0.363076,0.36624 0.09071,0.0309 0.20439,0.0383 0.581126,0.0383 h 0.46832 0.299615 0.468366 c 0.376737,0 0.490416,-0.007 0.581127,-0.0383 0.152299,-0.0519 0.315147,-0.21615 0.363077,-0.36624 0.01999,-0.0626 0.194534,-1.06667 0.387838,-2.23114 0.348493,-2.09934 0.351205,-2.11859 0.323424,-2.28164 -0.01541,-0.0904 -0.05848,-0.22978 -0.09575,-0.30965 -0.08195,-0.17569 -0.286698,-0.38878 -0.455941,-0.47454 -0.227137,-0.11509 -0.334187,-0.12927 -0.977742,-0.12927 H 69.725805 69.42619 Z m 0.234792,0.30334 c 0.168862,-1.5e-4 0.362464,3.6e-4 0.580766,0.001 1.203946,0.006 1.320385,0.0108 1.420766,0.0491 0.198016,0.0762 0.397795,0.29764 0.465439,0.51604 l 0.01604,0.0519 h -1.015597 c -0.98489,0 -1.017038,0.001 -1.061738,0.0461 -0.02537,0.0254 -0.0461,0.072 -0.0461,0.10372 0,0.0317 0.02074,0.0783 0.0461,0.10371 0.0447,0.0447 0.07684,0.0461 1.062006,0.0461 h 1.015917 l -0.01298,0.0634 c -0.0072,0.0348 -0.0443,0.25524 -0.08265,0.48975 -0.03834,0.23449 -0.07503,0.4497 -0.08152,0.47822 -0.01174,0.0516 -0.01361,0.0519 -0.472285,0.0519 -0.429772,0 -0.463609,0.002 -0.506629,0.0461 -0.05893,0.0589 -0.05893,0.14849 0,0.20743 0.04288,0.0429 0.07684,0.0461 0.48583,0.0461 h 0.439741 l -0.01305,0.0633 c -0.01583,0.077 -0.244153,1.44971 -0.244153,1.4679 0,0.007 -0.243723,0.0129 -0.541604,0.0129 -0.510874,0 -0.544219,0.002 -0.587697,0.0461 -0.02537,0.0254 -0.0461,0.072 -0.0461,0.10372 0,0.0317 0.02074,0.0783 0.0461,0.10371 0.04329,0.0432 0.07683,0.0461 0.553126,0.0461 h 0.507032 v 0.0519 c -1.6e-5,0.0285 -0.03036,0.22723 -0.06738,0.44154 -0.07267,0.42064 -0.098,0.48022 -0.233847,0.54948 -0.07185,0.0366 -0.173229,0.0402 -1.116154,0.0394 -0.815874,-8.4e-4 -1.052265,-0.007 -1.108194,-0.0319 -0.134638,-0.0587 -0.182125,-0.15809 -0.229253,-0.48007 l -0.01604,-0.10946 h 0.475072 c 0.444352,0 0.478058,-0.002 0.521167,-0.0461 0.054,-0.054 0.0595,-0.13421 0.01347,-0.19724 -0.03019,-0.0413 -0.07186,-0.0456 -0.54737,-0.0563 l -0.514729,-0.012 -0.08512,-0.49551 c -0.04681,-0.27253 -0.08571,-0.51366 -0.08642,-0.53584 -0.0013,-0.0377 0.05801,-0.0404 0.932097,-0.0404 0.902673,0 0.934923,-0.001 0.979496,-0.0461 0.05401,-0.054 0.05947,-0.13422 0.01339,-0.19725 -0.03125,-0.0428 -0.0763,-0.0453 -1.008307,-0.0563 l -0.975626,-0.012 -0.08512,-0.49551 c -0.04681,-0.27252 -0.08572,-0.51365 -0.08642,-0.53583 -0.0013,-0.0376 0.04703,-0.0404 0.701626,-0.0404 0.672201,0 0.704947,-0.002 0.749026,-0.0461 0.054,-0.054 0.05947,-0.13422 0.01339,-0.19724 -0.03086,-0.0423 -0.07404,-0.0454 -0.777836,-0.0563 l -0.745154,-0.012 -0.0623,-0.36875 c -0.04983,-0.29495 -0.05822,-0.39475 -0.042,-0.49866 0.05073,-0.32511 0.288924,-0.57522 0.611692,-0.64221 0.05962,-0.0123 0.343458,-0.0188 0.850037,-0.0193 z m -0.763387,0.7141 c -0.0317,0 -0.07836,0.0207 -0.103715,0.0461 -0.02537,0.0254 -0.0461,0.072 -0.0461,0.10371 0,0.0317 0.02074,0.0783 0.0461,0.10372 0.02537,0.0254 0.07203,0.0461 0.103715,0.0461 0.0317,0 0.07836,-0.0207 0.103715,-0.0461 0.02537,-0.0254 0.0461,-0.072 0.0461,-0.10372 0,-0.0317 -0.02074,-0.0783 -0.0461,-0.10371 -0.02537,-0.0254 -0.07203,-0.0461 -0.103715,-0.0461 z m 2.470797,0.57734 c -0.0317,0 -0.07836,0.0207 -0.103716,0.0461 -0.02536,0.0254 -0.0461,0.072 -0.0461,0.10372 0,0.0317 0.02074,0.0783 0.0461,0.10371 0.02537,0.0254 0.07203,0.0461 0.103716,0.0461 0.0317,0 0.07836,-0.0207 0.103715,-0.0461 0.02537,-0.0254 0.0461,-0.072 0.0461,-0.10371 0,-0.0317 -0.02074,-0.0783 -0.0461,-0.10372 -0.02537,-0.0254 -0.07203,-0.0461 -0.103715,-0.0461 z m -1.935268,0.88646 c -0.0317,0 -0.07836,0.0207 -0.103716,0.0461 -0.02537,0.0254 -0.0461,0.072 -0.0461,0.10371 0,0.0317 0.02074,0.0783 0.0461,0.10372 0.02537,0.0254 0.07203,0.0461 0.103716,0.0461 0.0317,0 0.07836,-0.0207 0.103715,-0.0461 0.02537,-0.0254 0.0461,-0.072 0.0461,-0.10372 0,-0.0317 -0.02074,-0.0783 -0.0461,-0.10371 -0.02537,-0.0254 -0.07203,-0.0461 -0.103715,-0.0461 z m 1.729018,0.74907 c -0.0317,0 -0.07836,0.0207 -0.103715,0.0461 -0.02537,0.0254 -0.0461,0.072 -0.0461,0.10372 0,0.0317 0.02074,0.0783 0.0461,0.10371 0.02537,0.0254 0.07203,0.0461 0.103715,0.0461 0.0317,0 0.07836,-0.0207 0.103715,-0.0461 0.02537,-0.0254 0.0461,-0.072 0.0461,-0.10371 0,-0.0317 -0.02074,-0.0783 -0.0461,-0.10372 -0.02537,-0.0254 -0.07202,-0.0461 -0.103715,-0.0461 z m -1.842858,0.69149 c -0.0317,0 -0.07836,0.0207 -0.103716,0.0461 -0.02537,0.0254 -0.0461,0.072 -0.0461,0.10372 0,0.0317 0.02074,0.0783 0.0461,0.10371 0.02537,0.0254 0.07203,0.0461 0.103716,0.0461 0.0317,0 0.07836,-0.0207 0.103715,-0.0461 0.02537,-0.0254 0.0461,-0.072 0.0461,-0.10371 0,-0.0317 -0.02074,-0.0783 -0.0461,-0.10372 -0.02537,-0.0254 -0.07201,-0.0461 -0.103715,-0.0461 z" /></g></svg>
